<svg xmlns="http://www.w3.org/2000/svg" width="256" height="256" viewBox="0 0 100 100"><rect width="100" height="100" fill="#349764" rx="20"/><path fill="#fff" d="M3.65 77.31L3.65 77.31Q1.94 77.31 0.82 76.23Q-0.31 75.16-0.31 73.36L-0.31 73.36L-0.31 22.77Q0.14 22.59 1.09 22.37Q2.03 22.15 3.11 22.15L3.11 22.15Q7.07 22.15 7.07 25.48L7.07 25.48L7.07 71.02L32.90 71.02Q33.89 72.00 33.89 73.98L33.89 73.98Q33.89 75.52 33.08 76.41Q32.27 77.31 30.92 77.31L30.92 77.31L3.65 77.31ZM75.92 63.09L75.92 63.09Q75.29 63.55 74.25 63.91Q73.22 64.27 71.96 64.27L71.96 64.27Q70.52 64.27 69.40 63.81Q68.27 63.36 67.82 62.38L67.82 62.38Q62.96 52.30 59.45 43.92Q55.94 35.55 53.78 30.06L53.78 30.06L53.42 30.06Q53.15 36.81 52.84 42.62Q52.52 48.42 52.16 53.96Q51.80 59.49 51.44 65.16Q51.08 70.83 50.72 77.31L50.72 77.31Q50.18 77.50 49.33 77.67Q48.47 77.86 47.48 77.86L47.48 77.86Q45.50 77.86 44.69 77.05Q43.88 76.23 43.88 74.70L43.88 74.70Q43.88 73.80 44.02 70.83Q44.15 67.86 44.42 63.63Q44.69 59.41 45.01 54.27Q45.32 49.14 45.73 43.84Q46.13 38.52 46.54 33.39Q46.94 28.27 47.30 24.03L47.30 24.03Q48.02 23.41 49.37 22.87Q50.72 22.33 52.43 22.33L52.43 22.33Q56.57 22.33 58.19 25.66L58.19 25.66Q59.90 29.16 61.66 33.08Q63.41 36.99 65.17 41.05Q66.92 45.09 68.59 49.05Q70.25 53.02 71.78 56.61L71.78 56.61L72.14 56.61Q74.12 51.84 76.10 47.21Q78.08 42.57 79.97 38.26Q81.86 33.94 83.57 30.16Q85.28 26.38 86.63 23.23L86.63 23.23Q87.44 22.77 88.70 22.55Q89.96 22.33 91.04 22.33L91.04 22.33Q95.27 22.33 95.90 25.20L95.90 25.20Q96.26 26.83 96.71 30.56Q97.16 34.30 97.61 39.16Q98.06 44.02 98.47 49.59Q98.87 55.17 99.23 60.35Q99.59 65.53 99.86 69.89Q100.13 74.25 100.31 76.77L100.31 76.77Q98.69 77.86 96.53 77.86L96.53 77.86Q95.18 77.86 94.15 77.18Q93.11 76.50 92.93 74.70L92.93 74.70Q92.48 68.13 92.12 61.66Q91.76 55.17 91.44 49.33Q91.13 43.48 90.86 38.57Q90.59 33.66 90.41 30.24L90.41 30.24L90.05 30.24Q89.06 32.77 87.75 35.91Q86.45 39.06 84.69 43.02Q82.94 46.98 80.78 51.98Q78.62 56.97 75.92 63.09Z"/></svg>