<svg xmlns="http://www.w3.org/2000/svg" id="cart" width="18.481" height="19.104" viewBox="0 0 18.481 19.104"><g id="Group_3" data-name="Group 3" transform="translate(0 0)"><g id="Group_2" data-name="Group 2" transform="translate(0 0)"><circle id="Ellipse_3" cx="2.258" cy="2.258" r="2.258" fill="#fff" data-name="Ellipse 3" transform="translate(5.093 14.587)"/><path id="Path_1" fill="#fff" d="M268.755,324.1h0a2.258,2.258,0,1,0,2.258,2.258A2.258,2.258,0,0,0,268.755,324.1Z" data-name="Path 1" transform="translate(-254.814 -309.511)"/><path id="Path_2" fill="#fff" d="M24.7,12.282H12.928l-.23-1.337h9.679a.691.691,0,0,0,.645-.438l2.3-5.807a.691.691,0,0,0-.645-.945H11.5L10.946.576A.691.691,0,0,0,10.254,0H7.6a.691.691,0,0,0,0,1.383H9.678L11.66,13.089a.691.691,0,0,0,.691.576H24.7a.691.691,0,0,0,0-1.383Z" data-name="Path 2" transform="translate(-6.913 0.001)"/></g></g></svg>