<svg xmlns="http://www.w3.org/2000/svg" id="delete" width="11.013" height="13.555" viewBox="0 0 11.013 13.555"><g id="trash"><path id="Path_89" d="M57.954,1.694h-2.33V1.271A1.271,1.271,0,0,0,54.354,0H52.659a1.271,1.271,0,0,0-1.271,1.271v.424h-2.33A1.059,1.059,0,0,0,48,2.753V3.6a.424.424,0,0,0,.424.424H58.59a.424.424,0,0,0,.424-.424V2.753A1.059,1.059,0,0,0,57.954,1.694Zm-5.718-.424a.424.424,0,0,1,.424-.424h1.694a.424.424,0,0,1,.424.424v.424H52.236Z" data-name="Path 89" transform="translate(-48)"/><path id="Path_90" d="M73.5,184a.132.132,0,0,0-.132.139l.349,7.335a1.269,1.269,0,0,0,1.269,1.21h6.433a1.269,1.269,0,0,0,1.269-1.21l.349-7.335A.132.132,0,0,0,82.9,184Zm6.4,1.059a.424.424,0,1,1,.847,0v5.507a.424.424,0,0,1-.847,0Zm-2.118,0a.424.424,0,1,1,.847,0v5.507a.424.424,0,0,1-.847,0Zm-2.118,0a.424.424,0,1,1,.847,0v5.507a.424.424,0,0,1-.847,0Z" data-name="Path 90" transform="translate(-72.693 -179.129)"/></g></svg>