<svg xmlns="http://www.w3.org/2000/svg" id="edit" width="14.012" height="14.011" viewBox="0 0 14.012 14.011"><path id="Path_91" d="M11.093,90.487a.584.584,0,0,0-.584.584v4.671a.584.584,0,0,1-.584.584H1.751a.584.584,0,0,1-.584-.584V87.568a.584.584,0,0,1,.584-.584H6.422a.584.584,0,0,0,0-1.168H1.751A1.754,1.754,0,0,0,0,87.568v8.174a1.754,1.754,0,0,0,1.751,1.751H9.925a1.754,1.754,0,0,0,1.751-1.751V91.07a.583.583,0,0,0-.584-.584Zm0,0" data-name="Path 91" transform="translate(0 -83.481)"/><path id="Path_92" d="M182.307,72.881a.3.3,0,0,0-.08.149l-.413,2.064a.292.292,0,0,0,.287.349.277.277,0,0,0,.057-.006l2.064-.413a.291.291,0,0,0,.149-.08l4.619-4.619-2.064-2.064Zm0,0" data-name="Path 92" transform="translate(-176.833 -66.408)"/><path id="Path_93" d="M394.317.928a1.461,1.461,0,0,0-2.064,0l-.808.808L393.509,3.8l.808-.808a1.459,1.459,0,0,0,0-2.064Zm0,0" data-name="Path 93" transform="translate(-380.733 -0.501)"/></svg>