<svg xmlns="http://www.w3.org/2000/svg" width="9.265" height="15.883" viewBox="0 0 9.265 15.883"><path id="facebook" d="M354.916,7111l-2.222,0c-2.5,0-4.11,1.407-4.11,3.583v1.651h-2.235a.327.327,0,0,0-.349.3v2.394a.328.328,0,0,0,.349.3h2.234v7.363a.327.327,0,0,0,.349.3h2.915a.327.327,0,0,0,.349-.3v-7.363h2.612a.327.327,0,0,0,.349-.3v-2.394a.278.278,0,0,0-.1-.21.384.384,0,0,0-.247-.087H352.2v-1.4c0-.674.189-1.015,1.221-1.015h1.5a.326.326,0,0,0,.349-.3V7111.3A.326.326,0,0,0,354.916,7111Z" transform="translate(-346 -7110.999)"/></svg>