<svg xmlns="http://www.w3.org/2000/svg" width="32" height="40" viewBox="0 0 32 40"><path id="featurez" fill="#464646" d="M1693.778,1759.167s.444-2.3-2.3-5.12a43.262,43.262,0,0,0,3.037-12.352s5.481,1.088,5.481,5.759A14.082,14.082,0,0,1,1693.778,1759.167Zm-15.111-2.808s-3.671-10.179-3.671-14.4a20.83,20.83,0,0,1,.633-5.124h16.728a20.7,20.7,0,0,1,.638,5.126c0,4.16-3.66,14.4-3.66,14.4Zm5.321-17.2a2.976,2.976,0,1,0,3.407,2.944A3.2,3.2,0,0,0,1683.988,1739.158Zm-.734-13.149V1722h1.327v3.906a18.3,18.3,0,0,1,7.474,9.829h-16.128A18.124,18.124,0,0,1,1683.254,1726.009Zm-9.032,33.159a14.082,14.082,0,0,1-6.222-11.712c0-4.672,5.481-5.759,5.481-5.759a43.267,43.267,0,0,0,3.037,12.352C1673.777,1756.864,1674.222,1759.167,1674.222,1759.167Zm12.021.591-1.111-.96-1.185,3.2-1.407-3.2-.963,1.664-1.407-3.008h7.63Z" transform="translate(-1668 -1722)"/></svg>