<svg xmlns="http://www.w3.org/2000/svg" id="instagram" width="16.585" height="16.585" viewBox="0 0 16.585 16.585"><path id="Path_15" d="M213.915,212.458A1.458,1.458,0,1,1,212.458,211,1.458,1.458,0,0,1,213.915,212.458Zm0,0" data-name="Path 15" transform="translate(-204.165 -204.165)"/><path id="Path_16" d="M126.867,120h-4.924A1.946,1.946,0,0,0,120,121.944v4.924a1.946,1.946,0,0,0,1.944,1.944h4.924a1.946,1.946,0,0,0,1.944-1.944v-4.924A1.946,1.946,0,0,0,126.867,120Zm-2.462,6.835a2.429,2.429,0,1,1,2.429-2.429A2.432,2.432,0,0,1,124.405,126.835Zm2.786-4.729a.486.486,0,1,1,.486-.486A.486.486,0,0,1,127.191,122.106Zm0,0" data-name="Path 16" transform="translate(-116.113 -116.113)"/><path id="Path_17" d="M12.212,0H4.373A4.378,4.378,0,0,0,0,4.373v7.839a4.378,4.378,0,0,0,4.373,4.373h7.839a4.378,4.378,0,0,0,4.373-4.373V4.373A4.378,4.378,0,0,0,12.212,0ZM13.67,10.754a2.919,2.919,0,0,1-2.915,2.915H5.831a2.919,2.919,0,0,1-2.915-2.915V5.831A2.919,2.919,0,0,1,5.831,2.915h4.924A2.919,2.919,0,0,1,13.67,5.831Zm0,0" data-name="Path 17"/></svg>