<svg xmlns="http://www.w3.org/2000/svg" width="17.207" height="15.883" viewBox="0 0 17.207 15.883"><path id="Linkedin" d="M449.206,7120.738v6.144h-3.688v-5.734c0-1.44-.533-2.422-1.868-2.422a2.012,2.012,0,0,0-1.893,1.3,2.365,2.365,0,0,0-.122.868v5.985h-3.689s.05-9.71,0-10.718h3.689v1.52c-.007.011-.017.023-.024.035h.024v-.035a3.684,3.684,0,0,1,3.325-1.771C447.387,7115.913,449.206,7117.446,449.206,7120.738ZM434.087,7111a1.863,1.863,0,1,0-.049,3.7h.025a1.864,1.864,0,1,0,.024-3.7Zm-1.868,15.883h3.688v-10.718h-3.688Z" transform="translate(-432 -7110.999)"/></svg>