<svg xmlns="http://www.w3.org/2000/svg" id="phone" width="11.5" height="11.5" viewBox="0 0 11.5 11.5"><g id="Group_129" data-name="Group 129"><path id="Path_94" d="M10.577,7.548a6.529,6.529,0,0,1-2.05-.327.937.937,0,0,0-.912.192L6.322,8.39A7.146,7.146,0,0,1,3.109,5.178l.947-1.259a.93.93,0,0,0,.229-.942A6.539,6.539,0,0,1,3.957.923.924.924,0,0,0,3.035,0H.923A.924.924,0,0,0,0,.923,10.589,10.589,0,0,0,10.577,11.5a.924.924,0,0,0,.923-.923V8.471A.924.924,0,0,0,10.577,7.548Z" data-name="Path 94"/></g></svg>