<svg xmlns="http://www.w3.org/2000/svg" width="17.207" height="14.56" viewBox="0 0 17.207 14.56"><path id="Twitter" d="M404.207,7112.723a7.146,7.146,0,0,1-2.033.581,3.635,3.635,0,0,0,1.552-2.032,6.885,6.885,0,0,1-2.237.89,3.472,3.472,0,0,0-2.577-1.163,3.6,3.6,0,0,0-3.525,3.675,3.943,3.943,0,0,0,.082.838,9.865,9.865,0,0,1-7.271-3.843,3.818,3.818,0,0,0-.483,1.857,3.719,3.719,0,0,0,1.567,3.052,3.382,3.382,0,0,1-1.594-.452v.04a3.658,3.658,0,0,0,2.826,3.61,3.4,3.4,0,0,1-.925.12,3.054,3.054,0,0,1-.668-.062,3.583,3.583,0,0,0,3.3,2.559,6.912,6.912,0,0,1-4.374,1.567,6.572,6.572,0,0,1-.844-.05,9.646,9.646,0,0,0,5.411,1.648c6.491,0,10.04-5.6,10.04-10.454,0-.163-.005-.32-.013-.476A7.2,7.2,0,0,0,404.207,7112.723Z" transform="translate(-387 -7110.999)"/></svg>