<svg xmlns="http://www.w3.org/2000/svg" id="user_black" width="10.143" height="11.331" data-name="user black" viewBox="0 0 10.143 11.331"><g id="Group_5" data-name="Group 5" transform="translate(2.13)"><g id="Group_4" data-name="Group 4"><path id="Path_3" d="M113.733,0a2.942,2.942,0,1,0,2.942,2.942A2.95,2.95,0,0,0,113.733,0Z" data-name="Path 3" transform="translate(-110.791)"/></g></g><g id="Group_7" data-name="Group 7" transform="translate(0 6.094)"><g id="Group_6" data-name="Group 6" transform="translate(0)"><path id="Path_4" d="M34.286,249.981a2.743,2.743,0,0,0-.3-.54,3.657,3.657,0,0,0-2.531-1.593.542.542,0,0,0-.373.09,3.136,3.136,0,0,1-3.7,0,.482.482,0,0,0-.373-.09,3.63,3.63,0,0,0-2.531,1.593,3.163,3.163,0,0,0-.3.54.273.273,0,0,0,.013.244,5.126,5.126,0,0,0,.347.514,4.883,4.883,0,0,0,.591.668,7.7,7.7,0,0,0,.591.514,5.858,5.858,0,0,0,6.989,0,5.646,5.646,0,0,0,.591-.514,5.932,5.932,0,0,0,.591-.668,4.5,4.5,0,0,0,.347-.514A.219.219,0,0,0,34.286,249.981Z" data-name="Path 4" transform="translate(-24.165 -247.841)"/></g></g></svg>