<svg xmlns="http://www.w3.org/2000/svg" id="user_login_signup" width="17.641" height="19.707" data-name="user login signup" viewBox="0 0 17.641 19.707"><g id="Group_5" data-name="Group 5" transform="translate(3.705)"><g id="Group_4" data-name="Group 4"><path id="Path_3" fill="#fff" d="M115.908,0a5.117,5.117,0,1,0,5.117,5.117A5.13,5.13,0,0,0,115.908,0Z" data-name="Path 3" transform="translate(-110.791)"/></g></g><g id="Group_7" data-name="Group 7" transform="translate(0 10.6)"><g id="Group_6" data-name="Group 6" transform="translate(0)"><path id="Path_4" fill="#fff" d="M41.768,251.564a4.77,4.77,0,0,0-.514-.938,6.36,6.36,0,0,0-4.4-2.771.942.942,0,0,0-.648.156,5.454,5.454,0,0,1-6.435,0,.839.839,0,0,0-.648-.156,6.314,6.314,0,0,0-4.4,2.771,5.5,5.5,0,0,0-.514.938.475.475,0,0,0,.022.425,8.914,8.914,0,0,0,.6.894,8.492,8.492,0,0,0,1.028,1.162,13.393,13.393,0,0,0,1.028.894,10.189,10.189,0,0,0,12.155,0,9.824,9.824,0,0,0,1.028-.894,10.317,10.317,0,0,0,1.028-1.162,7.834,7.834,0,0,0,.6-.894A.381.381,0,0,0,41.768,251.564Z" data-name="Path 4" transform="translate(-24.165 -247.841)"/></g></g></svg>