<svg xmlns="http://www.w3.org/2000/svg" id="wishlist" width="21.804" height="19.249" viewBox="0 0 21.804 19.249"><g id="Group_27" data-name="Group 27"><path id="Path_80" fill="#fff" d="M16.012,30a5.162,5.162,0,0,0-3.224,1.114A7.344,7.344,0,0,0,10.9,33.383a7.344,7.344,0,0,0-1.886-2.268A5.162,5.162,0,0,0,5.792,30C2.49,30,0,32.7,0,36.282,0,40.151,3.106,42.8,7.809,46.806c.8.681,1.7,1.452,2.645,2.275a.682.682,0,0,0,.9,0c.941-.823,1.846-1.594,2.645-2.275C18.7,42.8,21.8,40.151,21.8,36.282,21.8,32.7,19.314,30,16.012,30Z" data-name="Path 80" transform="translate(0 -30)"/></g></svg>