<svg xmlns="http://www.w3.org/2000/svg" id="youtube" width="22.199" height="15.262" viewBox="0 0 22.199 15.262"><g id="Group_6" data-name="Group 6" transform="translate(0 0)"><path id="Path_18" d="M21.256,81.471C20.654,80.4,20,80.2,18.67,80.128,17.34,80.037,14,80,11.1,80s-6.245.037-7.573.126S1.547,80.4.939,81.471,0,84.383,0,87.627v.011c0,3.23.319,5.086.939,6.145S2.2,95.048,3.528,95.138s4.673.123,7.574.123,6.238-.046,7.569-.122,1.984-.284,2.586-1.356c.626-1.059.942-2.915.942-6.145v-.011C22.2,84.383,21.883,82.54,21.256,81.471ZM8.325,91.793V83.469l6.937,4.162Z" data-name="Path 18" transform="translate(0 -80)"/></g></svg>