<svg xmlns="http://www.w3.org/2000/svg" id="zoom" width="17.8" height="17.8" viewBox="0 0 17.8 17.8"><g id="Group_19" data-name="Group 19"><g id="Group_18" data-name="Group 18"><path id="Path_6" d="M17.266,14.774l-2.492-2.492A7.759,7.759,0,0,0,16.02,8.01a8.01,8.01,0,1,0-8.01,8.01,7.759,7.759,0,0,0,4.272-1.246l2.492,2.492a1.762,1.762,0,0,0,2.492-2.492ZM8.01,14.24a6.23,6.23,0,1,1,6.23-6.23A6.192,6.192,0,0,1,8.01,14.24Z" data-name="Path 6"/></g></g><g id="Group_21" data-name="Group 21" transform="translate(3.56 3.56)"><g id="Group_20" data-name="Group 20"><path id="Path_7" d="M110.41,105.96h-2.67v-2.67a.841.841,0,0,0-.89-.89.892.892,0,0,0-.89.89v2.67h-2.67a.892.892,0,0,0-.89.89.841.841,0,0,0,.89.89h2.67v2.67a.89.89,0,0,0,1.78,0v-2.67h2.67a.841.841,0,0,0,.89-.89A.892.892,0,0,0,110.41,105.96Z" data-name="Path 7" transform="translate(-102.4 -102.4)"/></g></g></svg>